<?xml version="1.0" standalone="no"?>
<!DOCTYPE svg PUBLIC "-//W3C//DTD SVG 20010904//EN"
 "http://www.w3.org/TR/2001/REC-SVG-20010904/DTD/svg10.dtd">
<svg version="1.0" xmlns="http://www.w3.org/2000/svg"
 width="720.000000pt" height="720.000000pt" viewBox="0 0 720.000000 720.000000"
 preserveAspectRatio="xMidYMid meet">

<g transform="translate(0.000000,720.000000) scale(0.100000,-0.100000)"
fill="#000000" stroke="none">
<path d="M2080 5939 c-205 -26 -394 -163 -484 -352 -118 -246 -70 -523 124
-717 129 -129 264 -184 450 -183 175 1 312 59 440 186 111 109 169 245 177
412 9 180 -45 328 -167 458 -140 149 -337 221 -540 196z"/>
<path d="M4962 5939 c-327 -42 -569 -333 -549 -660 11 -179 83 -314 270 -502
168 -170 213 -247 224 -379 12 -144 -52 -272 -217 -433 -116 -113 -171 -184
-215 -276 -121 -253 -68 -530 138 -726 193 -183 460 -223 707 -105 89 43 218
164 267 252 99 176 108 389 23 568 -46 97 -84 146 -230 297 -180 186 -217 263
-208 425 7 126 50 199 212 367 212 219 269 323 283 514 27 383 -321 707 -705
658z"/>
<path d="M1999 4032 c-209 -59 -377 -223 -440 -432 -30 -97 -32 -255 -5 -345
32 -106 85 -194 166 -277 246 -248 636 -249 886 -2 112 111 172 248 181 411
11 197 -58 370 -201 500 -66 60 -123 95 -214 130 -92 35 -274 42 -373 15z"/>
<path d="M3444 2500 c-235 -61 -409 -245 -458 -483 -20 -96 -20 -157 0 -255
70 -348 424 -570 768 -482 337 86 542 429 456 764 -86 338 -432 544 -766 456z"/>
</g>
</svg>
